0
SECTION
2
HEADER
9
$INSUNITS
70
4
9
$ACADVER
1
AC1014
9
$HANDSEED
5
FFFF
0
ENDSEC
0
SECTION
2
TABLES
0
TABLE
2
VPORT
5
8
100
AcDbSymbolTable
0
ENDTAB
0
TABLE
2
LTYPE
5
5
100
AcDbSymbolTable
0
LTYPE
5
14
100
AcDbSymbolTableRecord
100
AcDbLinetypeTableRecord
2
BYBLOCK
70
0
0
LTYPE
5
15
100
AcDbSymbolTableRecord
100
AcDbLinetypeTableRecord
2
BYLAYER
70
0
0
ENDTAB
0
TABLE
2
LAYER
5
2
100
AcDbSymbolTable
70
2
0
LAYER
5
50
100
AcDbSymbolTableRecord
100
AcDbLayerTableRecord
2
0
70
0
6
CONTINUOUS
0
ENDTAB
0
TABLE
2
STYLE
5
3
100
AcDbSymbolTable
70
1
0
STYLE
5
11
100
AcDbSymbolTableRecord
100
AcDbTextStyleTableRecord
2
STANDARD
70
0
0
ENDTAB
0
TABLE
2
VIEW
5
6
100
AcDbSymbolTable
70
0
0
ENDTAB
0
TABLE
2
UCS
5
7
100
AcDbSymbolTable
70
0
0
ENDTAB
0
TABLE
2
APPID
5
9
100
AcDbSymbolTable
70
2
0
APPID
5
12
100
AcDbSymbolTableRecord
100
AcDbRegAppTableRecord
2
ACAD
70
0
0
ENDTAB
0
TABLE
2
DIMSTYLE
5
A
100
AcDbSymbolTable
70
1
0
ENDTAB
0
TABLE
2
BLOCK_RECORD
5
1
100
AcDbSymbolTable
70
1
0
BLOCK_RECORD
5
1F
100
AcDbSymbolTableRecord
100
AcDbBlockTableRecord
2
*MODEL_SPACE
0
BLOCK_RECORD
5
1B
100
AcDbSymbolTableRecord
100
AcDbBlockTableRecord
2
*PAPER_SPACE
0
ENDTAB
0
ENDSEC
0
SECTION
2
BLOCKS
0
BLOCK
5
20
100
AcDbEntity
100
AcDbBlockBegin
2
*MODEL_SPACE
0
ENDBLK
5
21
100
AcDbEntity
100
AcDbBlockEnd
0
BLOCK
5
1C
100
AcDbEntity
100
AcDbBlockBegin
2
*PAPER_SPACE
0
ENDBLK
5
1D
100
AcDbEntity
100
AcDbBlockEnd
0
ENDSEC
0
SECTION
2
ENTITIES
0
CIRCLE
5
100
100
AcDbEntity
8
0
100
AcDbCircle
10
6.0000000894069672
20
11.000000163912773
30
0
40
1.5000000000000002
210
0
220
0
230
1
0
CIRCLE
5
101
100
AcDbEntity
8
0
100
AcDbCircle
10
269.29326210993048
20
12.433866098787911
30
0
40
1.5000000000000002
210
0
220
0
230
1
0
CIRCLE
5
102
100
AcDbEntity
8
0
100
AcDbCircle
10
269.29326210993048
20
99.618466148469906
30
0
40
1.5000000000000002
210
0
220
0
230
1
0
CIRCLE
5
103
100
AcDbEntity
8
0
100
AcDbCircle
10
6.9471583590692987
20
99.618466148469906
30
0
40
1.4999999999999971
210
0
220
0
230
1
0
SPLINE
5
104
100
AcDbEntity
8
0
100
AcDbSpline
70
0
71
3
72
17
73
13
74
0
42
0.000000001
43
0.0000000001
44
0.0000000001
40
-1.9172736476606824
40
-1.9172736476606824
40
-1.9172736476606824
40
-1.9172736476606824
40
-1.288797169705191
40
-1.288797169705191
40
-1.288797169705191
40
-0.66266922071553769
40
-0.66266922071553769
40
-0.66266922071553769
40
-0.035736904063544683
40
-0.035736904063544683
40
-0.035736904063544683
40
0.23192482160857369
40
0.23192482160857369
40
0.23192482160857369
40
0.23192482160857369
10
-2.0325505671958228
20
29.953577024574951
30
-4.4408920985006254e-15
10
-3.4911882001888039
20
25.896052072422041
30
-4.4408920985006254e-15
10
-3.6364157327377091
20
21.373702984142465
30
-4.4408920985006254e-15
10
-2.441111668026009
20
17.230169732693358
30
-4.4408920985006254e-15
10
-1.2502742879356521
20
13.10212028724699
30
-4.4408920985006254e-15
10
1.2646959908622846
20
9.3709254530753849
30
-4.4408920985006254e-15
10
4.6377451563376564
20
6.7272643964285228
30
-4.4408920985006254e-15
10
8.0151275761847067
20
4.0802071082804403
30
-4.4408920985006254e-15
10
12.235773363129125
20
2.5368081053035767
30
-4.4408920985006254e-15
10
16.516626425582494
20
2.3830977423473048
30
-4.4408920985006254e-15
10
18.344288658986038
20
2.3174728257338555
30
-4.4408920985006254e-15
10
20.180586900526084
20
2.4989607650328507
30
-4.4408920985006254e-15
10
21.960480491478439
20
2.9211413324101221
30
-4.4408920985006254e-15
0
SPLINE
5
105
100
AcDbEntity
8
0
100
AcDbSpline
70
0
71
3
72
11
73
7
74
0
42
0.000000001
43
0.0000000001
44
0.0000000001
40
-0.23186846373609046
40
-0.23186846373609046
40
-0.23186846373609046
40
-0.23186846373609046
40
0.048452123230398936
40
0.048452123230398936
40
0.048452123230398936
40
0.2319248216085707
40
0.2319248216085707
40
0.2319248216085707
40
0.2319248216085707
10
253.85364381962333
20
2.9277040437832085
30
8.659739592076221e-14
10
207.97444193487019
20
13.80724638048898
30
8.659739592076221e-14
10
160.57171630978146
20
18.185515387074481
30
8.659739592076221e-14
10
113.48626053568437
20
15.892480873179267
30
8.659739592076221e-14
10
82.668346950648939
20
14.391666272684262
30
8.659739592076221e-14
10
51.98848889399892
20
10.043612972865077
30
8.659739592076221e-14
10
21.960480491478403
20
2.921141332410313
30
8.659739592076221e-14
0
SPLINE
5
106
100
AcDbEntity
8
0
100
AcDbSpline
70
0
71
3
72
17
73
13
74
0
42
0.000000001
43
0.0000000001
44
0.0000000001
40
2.9097241898537094
40
2.9097241898537094
40
2.9097241898537094
40
2.9097241898537094
40
3.5379838990529504
40
3.5379838990529504
40
3.5379838990529504
40
4.164054563662158
40
4.164054563662158
40
4.164054563662158
40
4.791014844092631
40
4.791014844092631
40
4.791014844092631
40
5.0444786623003095
40
5.0444786623003095
40
5.0444786623003095
40
5.0444786623003095
10
253.85364381962262
20
2.9277040437822817
30
-4.4408920985006254e-15
10
258.03149293259344
20
1.9369918161565816
30
-4.4408920985006254e-15
10
262.51818392647112
20
2.3084853935596801
30
-4.4408920985006254e-15
10
266.47817604179829
20
3.9730793757140215
30
-4.4408920985006254e-15
10
270.424370361103
20
5.6318734149500429
30
-4.4408920985006254e-15
10
273.82774329109367
20
8.5662395381354912
30
-4.4408920985006254e-15
10
276.05807707797408
20
12.23340503030645
30
-4.4408920985006254e-15
10
278.29158006017968
20
15.905781385444566
30
-4.4408920985006254e-15
10
279.33722760520203
20
20.294584528549407
30
-4.4408920985006254e-15
10
279.00065363034872
20
24.584905969713589
30
-4.4408920985006254e-15
10
278.86458548147482
20
26.319371912387179
30
-4.4408920985006254e-15
10
278.50849418892403
20
28.036296219102631
30
-4.4408920985006254e-15
10
277.94372849839408
20
29.681026503324404
30
-4.4408920985006254e-15
0
SPLINE
5
107
100
AcDbEntity
8
0
100
AcDbSpline
70
0
71
3
72
11
73
7
74
0
42
0.000000001
43
0.0000000001
44
0.0000000001
40
-1.8480402781084944
40
-1.8480402781084944
40
-1.8480402781084944
40
-1.8480402781084944
40
-1.4151647005541972
40
-1.4151647005541972
40
-1.4151647005541972
40
-1.2387066448792836
40
-1.2387066448792836
40
-1.2387066448792836
40
-1.2387066448792836
10
276.47148720826794
20
83.585695340245948
30
-1.1102230246251565e-14
10
272.93696667818767
20
71.111625450493662
30
-1.1102230246251565e-14
10
272.1339567956324
20
57.864817863492604
30
-1.1102230246251565e-14
10
274.13560634074304
20
45.052290137778044
30
-1.1102230246251565e-14
10
274.95156179119465
20
39.829371941435774
30
-1.1102230246251565e-14
10
276.22752418517484
20
34.679016386907747
30
-1.1102230246251565e-14
10
277.94372849839408
20
29.681026503324443
30
-1.1102230246251565e-14
0
SPLINE
5
108
100
AcDbEntity
8
0
100
AcDbSpline
70
0
71
3
72
14
73
10
74
0
42
0.000000001
43
0.0000000001
44
0.0000000001
40
-1.8480402781084864
40
-1.8480402781084864
40
-1.8480402781084864
40
-1.8480402781084864
40
-1.1995223263768224
40
-1.1995223263768224
40
-1.1995223263768224
40
-0.52988831733386277
40
-0.52988831733386277
40
-0.52988831733386277
40
0.13974569170909695
40
0.13974569170909695
40
0.13974569170909695
40
0.13974569170909695
10
276.47148720825885
20
83.585695340248449
30
-1.7763568394002501e-14
10
277.53673179614657
20
87.345168605690191
30
-1.7763568394002501e-14
10
277.34429842340705
20
91.452571718969779
30
-1.7763568394002501e-14
10
275.93232269858953
20
95.094914628294291
30
-1.7763568394002501e-14
10
274.47437236312658
20
98.855853979575983
30
-1.7763568394002501e-14
10
271.72277519353736
20
102.09628630743509
30
-1.7763568394002501e-14
10
268.25605457500774
20
104.13574402955682
30
-1.7763568394002501e-14
10
264.78933395647806
20
106.17520175167854
30
-1.7763568394002501e-14
10
260.63023868894106
20
107.00046459622058
30
-1.7763568394002501e-14
10
256.65205159948005
20
106.43846676568677
30
-1.7763568394002501e-14
0
SPLINE
5
109
100
AcDbEntity
8
0
100
AcDbSpline
70
0
71
3
72
11
73
7
74
0
42
0.000000001
43
0.0000000001
44
0.0000000001
40
-0.33324327332486953
40
-0.33324327332486953
40
-0.33324327332486953
40
-0.33324327332486953
40
0.018084718770019159
40
0.018084718770019159
40
0.018084718770019159
40
0.13974569170910014
40
0.13974569170910014
40
0.13974569170910014
40
0.13974569170910014
10
161.2721461369409
20
115.73521143631422
30
-5.5511151231257827e-14
10
183.9036533989096
20
107.86743231774231
30
-5.5511151231257827e-14
10
207.91965597036682
20
104.03488733467562
30
-5.5511151231257827e-14
10
231.86485039835642
20
104.46984645310366
30
-5.5511151231257827e-14
10
240.15680468857383
20
104.62046795417209
30
-5.5511151231257827e-14
10
248.43959388716442
20
105.27829422631599
30
-5.5511151231257827e-14
10
256.65205159947988
20
106.43846676568673
30
-5.5511151231257827e-14
0
SPLINE
5
110
100
AcDbEntity
8
0
100
AcDbSpline
70
0
71
3
72
11
73
7
74
0
42
0.000000001
43
0.0000000001
44
0.0000000001
40
-0.33324327332487408
40
-0.33324327332487408
40
-0.33324327332487408
40
-0.33324327332487408
40
0.12593223836050674
40
0.12593223836050674
40
0.12593223836050674
40
0.3238521134211384
40
0.3238521134211384
40
0.3238521134211384
40
0.3238521134211384
10
161.27214613694213
20
115.73521143631778
30
-8.8817841970012507e-15
10
151.07536408386161
20
119.28009370974337
30
-8.8817841970012507e-15
10
140.06190343070125
20
120.43074215333179
30
-8.8817841970012507e-15
10
129.35704194153843
20
119.06963196092632
30
-8.8817841970012507e-15
10
124.74289159040181
20
118.4829483239095
30
-8.8817841970012507e-15
10
120.18684453611591
20
117.43620045163217
30
-8.8817841970012507e-15
10
115.77760197873509
20
115.9497599425798
30
-8.8817841970012507e-15
0
SPLINE
5
111
100
AcDbEntity
8
0
100
AcDbSpline
70
0
71
3
72
11
73
7
74
0
42
0.000000001
43
0.0000000001
44
0.0000000001
40
-0.15084891659379221
40
-0.15084891659379221
40
-0.15084891659379221
40
-0.15084891659379221
40
0.20048187933910347
40
0.20048187933910347
40
0.20048187933910347
40
0.32385211342114106
40
0.32385211342114106
40
0.32385211342114106
40
0.32385211342114106
10
19.968777294628801
20
107.60555043661414
30
-5.5511151231257827e-14
10
43.646090720649525
20
103.99097439721778
30
-5.5511151231257827e-14
10
67.956116253190061
20
104.59699384330622
30
-5.5511151231257827e-14
10
91.425701613180408
20
109.38688039520586
30
-5.5511151231257827e-14
10
99.667074909199087
20
111.06885485339464
30
-5.5511151231257827e-14
10
107.80497238389728
20
113.26203309625343
30
-5.5511151231257827e-14
10
115.77760197873502
20
115.94975994257972
30
-5.5511151231257827e-14
0
SPLINE
5
112
100
AcDbEntity
8
0
100
AcDbSpline
70
0
71
3
72
14
73
10
74
0
42
0.000000001
43
0.0000000001
44
0.0000000001
40
2.9907437369959955
40
2.9907437369959955
40
2.9907437369959955
40
2.9907437369959955
40
3.6392191258251567
40
3.6392191258251567
40
3.6392191258251567
40
4.313001938473084
40
4.313001938473084
40
4.313001938473084
40
4.9867847511210099
40
4.9867847511210099
40
4.9867847511210099
40
4.9867847511210099
10
19.968777294628488
20
107.60555043661192
30
-1.9984014443252815e-14
10
16.122539897598323
20
108.19271661070395
30
-1.9984014443252815e-14
10
12.091585882734268
20
107.48370209886758
30
-1.9984014443252815e-14
10
8.672752460386624
20
105.61848961536965
30
-1.9984014443252815e-14
10
5.1204955220882367
20
103.68048528248913
30
-1.9984014443252815e-14
10
2.2533156602555362
20
100.50338899644096
30
-1.9984014443252815e-14
10
0.6810077887781979
20
96.762083583011844
30
-1.9984014443252815e-14
10
-0.89130008269913863
20
93.020778169582726
30
-1.9984014443252815e-14
10
-1.1580154196370851
20
88.7404764951239
30
-1.9984014443252815e-14
10
-0.062352076263162623
20
84.831390217980982
30
-1.9984014443252815e-14
0
SPLINE
5
113
100
AcDbEntity
8
0
100
AcDbSpline
70
0
71
3
72
11
73
7
74
0
42
0.000000001
43
0.0000000001
44
0.0000000001
40
-1.91727364766068
40
-1.91727364766068
40
-1.91727364766068
40
-1.91727364766068
40
-1.4843600002297843
40
-1.4843600002297843
40
-1.4843600002297843
40
-1.2964005560585756
40
-1.2964005560585756
40
-1.2964005560585756
40
-1.2964005560585756
10
-2.0325505671959001
20
29.953577024574933
30
-1.1102230246251565e-14
10
2.3531233043485678
20
42.153304196897622
30
-1.1102230246251565e-14
10
4.0665630361905523
20
55.313842802519531
30
-1.1102230246251565e-14
10
2.9516580600892404
20
68.23582244962266
30
-1.1102230246251565e-14
10
2.4675963520434854
20
73.846197928600546
30
-1.1102230246251565e-14
10
1.4570096074997416
20
79.410641277229644
30
-1.1102230246251565e-14
10
-0.062352076263164767
20
84.83139021798101
30
-1.1102230246251565e-14
0
ENDSEC
0
SECTION
2
OBJECTS
0
DICTIONARY
5
C
100
AcDbDictionary
3
ACAD_GROUP
350
D
3
ACAD_MLINESTYLE
350
17
0
DICTIONARY
5
D
100
AcDbDictionary
0
DICTIONARY
5
1A
330
C
100
AcDbDictionary
0
DICTIONARY
5
17
100
AcDbDictionary
0
ENDSEC
0
EOF
